<svg width="202" height="189" viewBox="0 0 202 189" fill="none" xmlns="http://www.w3.org/2000/svg">
<rect width="202" height="189" fill="white"/>
<path d="M67.172 94.9998C67.0227 94.9998 66.92 94.9345 66.864 94.8038L62.944 86.4318C62.9253 86.3758 62.888 86.3478 62.832 86.3478H58.8C58.7253 86.3478 58.688 86.3852 58.688 86.4598V94.7198C58.688 94.9065 58.5947 94.9998 58.408 94.9998H56.28C56.0933 94.9998 56 94.9065 56 94.7198V75.6798C56 75.4932 56.0933 75.3998 56.28 75.3998H63.812C64.932 75.3998 65.912 75.6332 66.752 76.0998C67.6107 76.5665 68.2733 77.2198 68.74 78.0598C69.2067 78.8998 69.44 79.8705 69.44 80.9718C69.44 82.2785 69.0947 83.3892 68.404 84.3038C67.732 85.1998 66.7893 85.8065 65.576 86.1238C65.5013 86.1612 65.4827 86.2078 65.52 86.2638L69.58 94.6638C69.5987 94.7012 69.608 94.7478 69.608 94.8038C69.608 94.9345 69.5333 94.9998 69.384 94.9998H67.172ZM58.8 77.7238C58.7253 77.7238 58.688 77.7612 58.688 77.8358V84.1078C58.688 84.1825 58.7253 84.2198 58.8 84.2198H63.476C64.4653 84.2198 65.2587 83.9305 65.856 83.3518C66.4533 82.7545 66.752 81.9705 66.752 80.9998C66.752 80.0105 66.4533 79.2172 65.856 78.6198C65.2587 78.0225 64.4653 77.7238 63.476 77.7238H58.8Z" fill="black"/>
<path d="M78.5505 95.2238C77.1692 95.2238 75.9652 94.8785 74.9385 94.1878C73.9118 93.4785 73.1932 92.4985 72.7825 91.2478C72.4465 90.2398 72.2785 89.1012 72.2785 87.8318C72.2785 86.5065 72.4372 85.3865 72.7545 84.4718C73.1652 83.2398 73.8838 82.2785 74.9105 81.5878C75.9372 80.8785 77.1598 80.5238 78.5785 80.5238C79.9225 80.5238 81.0892 80.8785 82.0785 81.5878C83.0865 82.2785 83.8052 83.2305 84.2345 84.4438C84.5705 85.3958 84.7385 86.5158 84.7385 87.8038C84.7385 89.1105 84.5705 90.2585 84.2345 91.2478C83.8238 92.4985 83.1145 93.4785 82.1065 94.1878C81.0985 94.8785 79.9132 95.2238 78.5505 95.2238ZM78.5505 92.8998C79.2972 92.8998 79.9505 92.6945 80.5105 92.2838C81.0705 91.8545 81.4718 91.2572 81.7145 90.4918C81.9198 89.7825 82.0225 88.9052 82.0225 87.8598C82.0225 86.8145 81.9292 85.9465 81.7425 85.2558C81.4998 84.4905 81.0985 83.9025 80.5385 83.4918C79.9785 83.0625 79.2972 82.8478 78.4945 82.8478C77.7292 82.8478 77.0665 83.0625 76.5065 83.4918C75.9465 83.9025 75.5452 84.4905 75.3025 85.2558C75.0972 85.9092 74.9945 86.7772 74.9945 87.8598C74.9945 88.9425 75.0972 89.8198 75.3025 90.4918C75.5265 91.2572 75.9185 91.8545 76.4785 92.2838C77.0572 92.6945 77.7478 92.8998 78.5505 92.8998Z" fill="black"/>
<path d="M99.7658 84.4438C100.064 85.3958 100.214 86.5252 100.214 87.8318C100.214 89.2318 100.036 90.4265 99.6817 91.4158C99.2711 92.6292 98.6177 93.5718 97.7217 94.2438C96.8444 94.8972 95.7337 95.2238 94.3897 95.2238C93.7364 95.2238 93.1297 95.0932 92.5697 94.8318C92.0097 94.5705 91.5244 94.2065 91.1138 93.7398C91.0764 93.7025 91.0391 93.6932 91.0017 93.7118C90.9831 93.7305 90.9737 93.7585 90.9737 93.7958V94.7198C90.9737 94.9065 90.8804 94.9998 90.6937 94.9998H88.5658C88.3791 94.9998 88.2857 94.9065 88.2857 94.7198V75.6798C88.2857 75.4932 88.3791 75.3998 88.5658 75.3998H90.6937C90.8804 75.3998 90.9737 75.4932 90.9737 75.6798V81.9238C90.9737 81.9612 90.9831 81.9892 91.0017 82.0078C91.0391 82.0265 91.0764 82.0172 91.1138 81.9798C91.5244 81.5132 92.0097 81.1585 92.5697 80.9158C93.1484 80.6545 93.7551 80.5238 94.3897 80.5238C95.7897 80.5238 96.9377 80.8692 97.8337 81.5598C98.7297 82.2505 99.3737 83.2118 99.7658 84.4438ZM96.7977 91.3598C97.2644 90.4825 97.4977 89.3252 97.4977 87.8878C97.4977 86.3572 97.1991 85.1252 96.6017 84.1918C96.0604 83.2958 95.2297 82.8478 94.1097 82.8478C93.0644 82.8478 92.2711 83.3238 91.7297 84.2758C91.2444 85.1345 91.0017 86.3292 91.0017 87.8598C91.0017 89.3905 91.2257 90.5665 91.6737 91.3878C92.2337 92.3958 93.0551 92.8998 94.1377 92.8998C95.3697 92.8998 96.2564 92.3865 96.7977 91.3598Z" fill="black"/>
<path d="M115.215 84.4438C115.514 85.3958 115.663 86.5252 115.663 87.8318C115.663 89.2318 115.486 90.4265 115.131 91.4158C114.72 92.6292 114.067 93.5718 113.171 94.2438C112.294 94.8972 111.183 95.2238 109.839 95.2238C109.186 95.2238 108.579 95.0932 108.019 94.8318C107.459 94.5705 106.974 94.2065 106.563 93.7398C106.526 93.7025 106.488 93.6932 106.451 93.7118C106.432 93.7305 106.423 93.7585 106.423 93.7958V94.7198C106.423 94.9065 106.33 94.9998 106.143 94.9998H104.015C103.828 94.9998 103.735 94.9065 103.735 94.7198V75.6798C103.735 75.4932 103.828 75.3998 104.015 75.3998H106.143C106.33 75.3998 106.423 75.4932 106.423 75.6798V81.9238C106.423 81.9612 106.432 81.9892 106.451 82.0078C106.488 82.0265 106.526 82.0172 106.563 81.9798C106.974 81.5132 107.459 81.1585 108.019 80.9158C108.598 80.6545 109.204 80.5238 109.839 80.5238C111.239 80.5238 112.387 80.8692 113.283 81.5598C114.179 82.2505 114.823 83.2118 115.215 84.4438ZM112.247 91.3598C112.714 90.4825 112.947 89.3252 112.947 87.8878C112.947 86.3572 112.648 85.1252 112.051 84.1918C111.51 83.2958 110.679 82.8478 109.559 82.8478C108.514 82.8478 107.72 83.3238 107.179 84.2758C106.694 85.1345 106.451 86.3292 106.451 87.8598C106.451 89.3905 106.675 90.5665 107.123 91.3878C107.683 92.3958 108.504 92.8998 109.587 92.8998C110.819 92.8998 111.706 92.3865 112.247 91.3598Z" fill="black"/>
<path d="M120.808 78.5078C120.285 78.5078 119.856 78.3398 119.52 78.0038C119.184 77.6678 119.016 77.2385 119.016 76.7158C119.016 76.1932 119.184 75.7638 119.52 75.4278C119.856 75.0918 120.285 74.9238 120.808 74.9238C121.33 74.9238 121.76 75.0918 122.096 75.4278C122.432 75.7638 122.6 76.1932 122.6 76.7158C122.6 77.2385 122.432 77.6678 122.096 78.0038C121.76 78.3398 121.33 78.5078 120.808 78.5078ZM119.688 94.9718C119.501 94.9718 119.408 94.8785 119.408 94.6918V81.0278C119.408 80.8412 119.501 80.7478 119.688 80.7478H121.816C122.002 80.7478 122.096 80.8412 122.096 81.0278V94.6918C122.096 94.8785 122.002 94.9718 121.816 94.9718H119.688Z" fill="black"/>
<path d="M137.856 86.0958C137.931 86.8612 137.959 87.7198 137.94 88.6718C137.94 88.8585 137.847 88.9518 137.66 88.9518H128.728C128.654 88.9518 128.616 88.9892 128.616 89.0638C128.616 89.6985 128.672 90.1838 128.784 90.5198C128.99 91.2665 129.4 91.8545 130.016 92.2838C130.651 92.6945 131.444 92.8998 132.396 92.8998C133.778 92.8998 134.842 92.3305 135.588 91.1918C135.682 91.0052 135.803 90.9772 135.952 91.1078L137.548 92.1718C137.679 92.2838 137.707 92.4052 137.632 92.5358C137.11 93.3758 136.363 94.0385 135.392 94.5238C134.44 95.0092 133.358 95.2518 132.144 95.2518C130.782 95.2518 129.634 94.9532 128.7 94.3558C127.767 93.7585 127.067 92.9092 126.6 91.8078C126.152 90.7065 125.928 89.3718 125.928 87.8038C125.928 86.4412 126.031 85.4052 126.236 84.6958C126.572 83.4078 127.244 82.3905 128.252 81.6438C129.26 80.8972 130.483 80.5238 131.92 80.5238C133.806 80.5238 135.215 80.9998 136.148 81.9518C137.082 82.8852 137.651 84.2665 137.856 86.0958ZM131.92 82.8478C131.118 82.8478 130.455 83.0532 129.932 83.4638C129.41 83.8558 129.055 84.3878 128.868 85.0598C128.738 85.4705 128.654 85.9932 128.616 86.6278C128.616 86.7025 128.654 86.7398 128.728 86.7398H135.14C135.215 86.7398 135.252 86.7025 135.252 86.6278C135.215 86.0118 135.159 85.5545 135.084 85.2558C134.898 84.5278 134.524 83.9492 133.964 83.5198C133.423 83.0718 132.742 82.8478 131.92 82.8478Z" fill="black"/>
<path d="M56.28 117C56.0933 117 56 116.906 56 116.72V97.6798C56 97.4932 56.0933 97.3998 56.28 97.3998H58.408C58.5947 97.3998 58.688 97.4932 58.688 97.6798V114.564C58.688 114.638 58.7253 114.676 58.8 114.676H68.46C68.6467 114.676 68.74 114.769 68.74 114.956V116.72C68.74 116.906 68.6467 117 68.46 117H56.28Z" fill="black"/>
<path d="M83.1688 108.096C83.2434 108.861 83.2714 109.72 83.2528 110.672C83.2528 110.858 83.1594 110.952 82.9728 110.952H74.0408C73.9661 110.952 73.9288 110.989 73.9288 111.064C73.9288 111.698 73.9848 112.184 74.0968 112.52C74.3021 113.266 74.7128 113.854 75.3288 114.284C75.9634 114.694 76.7568 114.9 77.7087 114.9C79.0901 114.9 80.1541 114.33 80.9008 113.192C80.9941 113.005 81.1154 112.977 81.2648 113.108L82.8608 114.172C82.9914 114.284 83.0194 114.405 82.9448 114.536C82.4221 115.376 81.6754 116.038 80.7048 116.524C79.7528 117.009 78.6701 117.252 77.4568 117.252C76.0941 117.252 74.9461 116.953 74.0128 116.356C73.0794 115.758 72.3794 114.909 71.9128 113.808C71.4648 112.706 71.2408 111.372 71.2408 109.804C71.2408 108.441 71.3434 107.405 71.5487 106.696C71.8848 105.408 72.5568 104.39 73.5648 103.644C74.5728 102.897 75.7954 102.524 77.2327 102.524C79.1181 102.524 80.5274 103 81.4608 103.952C82.3941 104.885 82.9634 106.266 83.1688 108.096ZM77.2327 104.848C76.4301 104.848 75.7674 105.053 75.2448 105.464C74.7221 105.856 74.3674 106.388 74.1807 107.06C74.0501 107.47 73.9661 107.993 73.9288 108.628C73.9288 108.702 73.9661 108.74 74.0408 108.74H80.4528C80.5274 108.74 80.5648 108.702 80.5648 108.628C80.5274 108.012 80.4714 107.554 80.3968 107.256C80.2101 106.528 79.8368 105.949 79.2768 105.52C78.7354 105.072 78.0541 104.848 77.2327 104.848Z" fill="black"/>
<path d="M93.0005 102.552C94.5311 102.552 95.7445 103 96.6405 103.896C97.5365 104.773 97.9845 105.968 97.9845 107.48V116.72C97.9845 116.906 97.8911 117 97.7045 117H95.5765C95.3898 117 95.2965 116.906 95.2965 116.72V108.012C95.2965 107.078 95.0258 106.322 94.4845 105.744C93.9431 105.165 93.2245 104.876 92.3285 104.876C91.4511 104.876 90.7325 105.165 90.1725 105.744C89.6125 106.322 89.3325 107.069 89.3325 107.984V116.72C89.3325 116.906 89.2391 117 89.0525 117H86.9245C86.7378 117 86.6445 116.906 86.6445 116.72V103.028C86.6445 102.841 86.7378 102.748 86.9245 102.748H89.0525C89.2391 102.748 89.3325 102.841 89.3325 103.028V104.036C89.3325 104.073 89.3418 104.101 89.3605 104.12C89.3978 104.138 89.4258 104.129 89.4445 104.092C90.2471 103.065 91.4325 102.552 93.0005 102.552Z" fill="black"/>
<path d="M106.832 117.168C105.712 117.168 104.723 117 103.864 116.664C103.024 116.328 102.371 115.87 101.904 115.292C101.438 114.694 101.204 114.041 101.204 113.332V113.024C101.204 112.837 101.298 112.744 101.484 112.744H103.5C103.687 112.744 103.78 112.837 103.78 113.024V113.164C103.78 113.686 104.06 114.144 104.62 114.536C105.199 114.928 105.927 115.124 106.804 115.124C107.644 115.124 108.326 114.946 108.848 114.592C109.371 114.218 109.632 113.752 109.632 113.192C109.632 112.65 109.39 112.249 108.904 111.988C108.419 111.708 107.635 111.418 106.552 111.12C105.488 110.821 104.592 110.522 103.864 110.224C103.155 109.906 102.548 109.468 102.044 108.908C101.559 108.329 101.316 107.592 101.316 106.696C101.316 105.445 101.802 104.456 102.772 103.728C103.762 102.981 105.068 102.608 106.692 102.608C107.775 102.608 108.727 102.785 109.548 103.14C110.388 103.476 111.032 103.952 111.48 104.568C111.928 105.184 112.152 105.874 112.152 106.64V106.724C112.152 106.91 112.059 107.004 111.872 107.004H109.912C109.726 107.004 109.632 106.91 109.632 106.724V106.64C109.632 106.098 109.362 105.65 108.82 105.296C108.298 104.922 107.579 104.736 106.664 104.736C105.843 104.736 105.171 104.894 104.648 105.212C104.144 105.529 103.892 105.958 103.892 106.5C103.892 107.041 104.135 107.452 104.62 107.732C105.124 108.012 105.927 108.31 107.028 108.628C108.111 108.926 109.007 109.225 109.716 109.524C110.444 109.804 111.06 110.233 111.564 110.812C112.068 111.372 112.32 112.109 112.32 113.024C112.32 114.293 111.816 115.301 110.808 116.048C109.819 116.794 108.494 117.168 106.832 117.168Z" fill="black"/>
<path fill-rule="evenodd" clip-rule="evenodd" d="M137.704 117L137.704 73L138.704 73L138.704 117L137.704 117Z" fill="black"/>
<path fill-rule="evenodd" clip-rule="evenodd" d="M128.704 117L128.704 99L129.704 99L129.704 117L128.704 117Z" fill="black"/>
<path fill-rule="evenodd" clip-rule="evenodd" d="M119.704 117L119.704 103L120.704 103L120.704 117L119.704 117Z" fill="black"/>
</svg>
